<svg version="1.1" id="Layer_1" xmlns="http://www.w3.org/2000/svg" x="0" y="0" viewBox="0 0 1280 1186" xml:space="preserve"><style>.st0{fill:#ffbc9e}</style><path class="st0" d="M1048.9 252.8C996.4 298.9 872.7 407.6 774 494.3S594.2 652 593.8 652c-.4 0-43.1-48.3-94.9-107.3-51.8-58.9-94.9-108-95.9-109-1.8-2 7.9-10.2-115.8 98.5-19.9 17.5-36.2 32.2-36.2 32.6 0 .5 50.2 57.9 111.6 127.7 61.4 69.9 134.8 153.4 163.2 185.7l51.5 58.7 3.6-3.1c2-1.8 46.1-40.5 98.1-86.2 138.3-121.5 432.7-380.1 532.8-468l68.2-60-2.3-2.5c-1.3-1.4-31.5-35.8-67.1-76.4-35.6-40.5-65.1-73.7-65.5-73.7-.4 0-43.7 37.7-96.2 83.8z"/><path class="st0" d="M1185.8 768.9l-.3-276.6-73.5 64.6-46.2 40.6v468.4h-946V120h946v29.2l33.9-29.8 61.3-53.6-2.2-3.2c-5.4-7.7-16.6-20.1-24.1-26.4-23-19.5-50.4-31.6-79.2-35.1-11-1.3-913.9-1.3-925.5 0-35 4-71.1 23.4-94 50.4-17.3 20.4-28.2 43.2-33.7 70-1.7 8.6-1.8 28-1.8 472v463l2.3 10.2c13.3 60 57.3 103.9 117 116.5l10.7 2.3H593c443.5 0 462.9-.1 471.5-1.8 36-7.4 66.6-25.6 88.5-52.9 18-22.4 28.9-48.2 32-75.4.8-7.1 1-87.3.8-286.5z"/></svg>